<svg width="422" height="278" viewBox="0 0 422 278" fill="none" xmlns="http://www.w3.org/2000/svg">
<path d="M406.519 193.208C405.246 202.444 405.285 208.256 406.917 208.482C408.548 208.708 411.452 203.316 414.874 194.403C416.545 189.947 418.375 184.715 420.206 178.644C420.643 177.127 421.121 175.706 421.598 173.897C422.134 171.767 422.134 169.57 421.598 167.439C421.263 165.989 420.554 164.612 419.519 163.399C418.484 162.186 417.145 161.164 415.59 160.399C412.617 159.032 409.26 158.309 405.842 158.3C403.179 158.273 400.518 158.425 397.885 158.752C395.577 159.011 393.309 159.334 391.041 159.624C386.585 160.27 382.288 160.981 378.27 161.756C371.223 163.195 364.287 164.975 357.501 167.084C345.843 170.701 339.358 174.059 339.955 175.157C340.551 176.255 348.151 175.157 359.848 173.122C365.816 172.154 372.859 170.991 380.737 169.893C384.715 169.377 388.694 168.828 393.11 168.343C397.232 167.793 401.391 167.448 405.564 167.31H406.002C400.841 170.304 395.899 173.539 391.201 176.998C380.1 184.522 362.275 197.309 330.883 216.136C315.167 225.404 295.87 236.415 272.038 247.911C259.232 254.062 245.654 259.085 231.534 262.895C215.643 267.377 198.552 268.281 182.078 265.511C164.158 261.848 148.49 253.022 137.994 240.678C127.921 229.108 121.338 215.779 118.777 201.766C137.751 199.773 156.17 195.176 173.246 188.171C196.153 178.869 215.639 164.836 229.744 147.482C236.52 138.623 240.61 128.585 241.68 118.193C242.254 112.873 241.634 107.511 239.85 102.37C237.98 96.877 234.452 91.8491 229.585 87.7417C224.25 83.5191 217.758 80.3837 210.641 78.593C203.524 76.8023 195.985 76.4073 188.643 77.4406C175.075 79.5303 162.399 84.424 151.84 91.6492C146.779 94.9295 142.116 98.5952 137.915 102.596C135.806 104.566 133.936 106.665 132.066 108.764C130.196 110.863 128.684 112.93 127.053 115.222C120.833 123.591 115.713 132.466 111.774 141.702C104.566 158.775 101.71 176.859 103.379 194.855C102.225 194.855 101.071 194.855 99.9574 194.855C76.8808 195.243 53.7643 191.4 36.2977 182.197C27.8328 177.937 20.8376 172.004 15.9664 164.952C11.5169 158.248 8.88515 150.849 8.24763 143.252C7.34023 128.871 9.5763 114.472 14.8523 100.723C19.0078 88.4383 24.3287 76.4328 30.7673 64.8143C40.2524 47.7988 51.9357 31.6483 65.6209 16.6343C75.4086 5.94552 81.5359 0.488117 80.9789 0.0683182C80.4218 -0.351481 79.0691 1.19859 75.9657 3.74968C74.414 4.97679 72.5838 6.62366 70.4352 8.56119C68.2867 10.4987 65.8596 12.7269 63.2337 15.3426C38.1876 40.0967 19.4316 68.6326 8.04868 99.3024C2.15033 113.565 -0.544918 128.572 0.0912151 143.607C0.60685 152.036 3.31901 160.279 8.04868 167.794C13.4472 175.902 21.2739 182.776 30.807 187.783C50.3824 198.343 75.3291 202.638 100.156 202.541C101.589 202.541 103.021 202.541 104.453 202.541C107.179 218.399 114.531 233.5 125.899 246.587C132.249 253.825 140.065 260.136 149.015 265.252C157.922 270.33 167.942 273.98 178.537 276.006C188.547 277.885 198.866 278.441 209.094 277.652C218.372 276.961 227.526 275.434 236.388 273.099C251.545 269.004 266.113 263.59 279.836 256.953C300.443 246.815 320.365 235.788 339.517 223.918C360.391 211.207 380.159 197.343 398.681 182.423C402.799 179.101 406.703 175.609 410.378 171.96C410.378 173.51 409.781 175.189 409.423 177.03C408.19 183.068 407.235 188.526 406.598 193.176L406.519 193.208ZM125.342 144.738C128.928 136.163 133.608 127.916 139.307 120.131C140.779 118.193 142.291 116.191 143.883 114.318C145.435 112.461 147.109 110.671 148.896 108.958C152.481 105.424 156.478 102.18 160.832 99.2701C169.448 93.2498 179.815 89.1149 190.951 87.2574C196.256 86.5393 201.69 86.7819 206.866 87.9678C211.885 89.0901 216.453 91.2614 220.115 94.2648C223.588 97.4162 226.2 101.129 227.777 105.159C229.354 109.189 229.862 113.444 229.266 117.644C228.371 126.633 224.926 135.331 219.2 143.058C206.402 159.068 188.666 172.082 167.755 180.808C152.098 187.366 135.19 191.733 117.742 193.725C116.174 177.096 118.745 160.381 125.302 144.576L125.342 144.738ZM409.742 168.246C409.742 168.246 409.742 168.246 409.742 168.053C409.855 168.123 409.949 168.211 410.02 168.311V168.311" fill="#EFC959"/>
</svg>
